<?xml version="1.0" encoding="utf-8"?>
<!-- Generator: Adobe Illustrator 19.0.0, SVG Export Plug-In . SVG Version: 6.00 Build 0)  -->
<svg version="1.1" id="Layer_1" xmlns="http://www.w3.org/2000/svg" xmlns:xlink="http://www.w3.org/1999/xlink" x="0px" y="0px"
	 viewBox="-514 516 50 50" style="enable-background:new -514 516 50 50;" xml:space="preserve">
<path d="M-478,520h-22c-5.5,0-10,4.5-10,10v22c0,5.5,4.5,10,10,10h22c5.5,0,10-4.5,10-10v-22C-468,524.5-472.5,520-478,520z
	 M-497,555.7h-6v-19h6V555.7z M-500,533.7c-1.8,0-3-1.1-3-2.5c0-1.4,1.2-2.5,3-2.5s2.9,1.1,3,2.5C-497,532.6-498.1,533.7-500,533.7z
	 M-475,555.7h-6c0,0,0-9.3,0-10c0-2-1-4-3.5-4h-0.1c-2.4,0-3.4,2.1-3.4,4c0,0.9,0,10,0,10h-6v-19h6v2.6c0,0,1.9-2.6,5.8-2.6
	c4,0,7.2,2.7,7.2,8.3V555.7z"/>
</svg>
