<?xml version="1.0" encoding="utf-8"?>
<!-- Generator: Adobe Illustrator 19.0.0, SVG Export Plug-In . SVG Version: 6.00 Build 0)  -->
<svg version="1.1" id="Layer_1" xmlns="http://www.w3.org/2000/svg" xmlns:xlink="http://www.w3.org/1999/xlink" x="0px" y="0px"
	 viewBox="-514 516 50 50" style="enable-background:new -514 516 50 50;" xml:space="preserve">
<path class="st0" d="M-489,520c-11.6,0-21,9.4-21,21s9.4,21,21,21s21-9.4,21-21S-477.4,520-489,520z M-490.3,552.4
	c-2.8,2.8-7.3,2.8-10.1,0c-2.8-2.8-2.8-7.3,0-10.1l5.1-5.1c2.8-2.8,7.3-2.8,10.1,0c0.4,0.4,0.8,0.9,1.1,1.4l-2.4,2.4
	c-0.1,0.1-0.2,0.2-0.4,0.3c-0.2-0.6-0.4-1.1-0.9-1.5c-1.4-1.4-3.7-1.4-5.1,0l-5.1,5.1c-1.4,1.4-1.4,3.7,0,5.1c1.4,1.4,3.7,1.4,5.1,0
	l1.8-1.8c1.5,0.6,3,0.7,4.6,0.5L-490.3,552.4z M-477.6,539.7l-5.1,5.1c-2.8,2.8-7.3,2.8-10.1,0c-0.4-0.4-0.8-0.9-1.1-1.4l2.4-2.4
	c0.1-0.1,0.3-0.2,0.4-0.3c0.2,0.6,0.4,1.1,0.9,1.5c1.4,1.4,3.7,1.4,5.1,0l5.1-5.1c1.4-1.4,1.4-3.7,0-5.1c-1.4-1.4-3.7-1.4-5.1,0
	l-1.8,1.8c-1.5-0.6-3-0.7-4.6-0.5l3.8-3.8c2.8-2.8,7.3-2.8,10.1,0C-474.8,532.4-474.8,536.9-477.6,539.7z"/>
</svg>
